# xmcd
#
# Track frame offsets:
# 150
# 12680
# 26912
# 40902
# 53339
# 65975
# 80453
# 92323
# 105848
# 118648
# 130703
# 144589
# 156002
# 169465
# 184128
# 197659
# 210176
# 224818
#
# Disc length: 3149 seconds
#
#
# Revision: 0
# Processed by: cddbd v1.5.2PL0 Copyright (c) Steve Scherf et al.
# Submitted via: FreeRIP 2.95 
#
DISCID=fb0c4b12
DTITLE=Pedro Paimundo - Recordando 78 Rotaçoes Vol II - Pedro Raimundo
DYEAR=1948
DGENRE=pop
TTITLE0=Segura o Bonde
TTITLE1=Trenzinho do Amor
TTITLE2=Meu Coração te Fala
TTITLE3=Mexeriqueira
TTITLE4=Indio Vago
TTITLE5=Falando à Nossa Felicidade
TTITLE6=Brincando na Areia
TTITLE7=Mariana no Samba
TTITLE8=Gaucha Malvada
TTITLE9=Sofrer Sorrindo
TTITLE10=Tira Cisma
TTITLE11=Pulandinho
TTITLE12=Chico da Ronda
TTITLE13=Na Casa do Zebedeu
TTITLE14=Adeus Mocidade
TTITLE15=Nen é Bom Falar
TTITLE16=Tá Tudo Errado
TTITLE17=Comtemplando o Firmamento
EXTD=
EXTT0=Continental - 15.245 (01/45)
EXTT1=Continental - 15.245 (01/45)
EXTT2=Continental - 15.295 (03/45) Alcides Girardi
EXTT3=Continental - 15.295 (03/45)
EXTT4=Continental - 15.425 (03/45)
EXTT5=Continental - 15.425 (03/45)
EXTT6=Continental - 15.497 (12/45)
EXTT7=Continental - 15.497 (12/45)
EXTT8=Continental - 15.599 (12/09/45)
EXTT9=Continental - 15.599 (12/09/45)
EXTT10=Continental - 15.689 (09/45)
EXTT11=Continental - 15.689 (09/45)
EXTT12=Continental - 15.790 (30/05/47)
EXTT13=Continental - 15.790 (30/05/47)
EXTT14=Continental - 15.814 (20/05/47) Nuno Roland
EXTT15=Continental - 15.814 (20/05/47)
EXTT16=Continental - 15.921 (07/07/48)
EXTT17=Continental - 15.921 (07/07/48)
PLAYORDER=
